Format : AVI
Format/Info : Audio Video Interleave
Format profile : OpenDML
File size : 1.25 GiB
Duration : 1h 32mn
Overall bit rate : 1 936 Kbps
Writing application : Lavf52.47.0

Video
ID : 0
Format : xvid
Codec ID : xvid
Duration : 1h 32mn
Bit rate : 1 794 Kbps
Width : 720 pixels
Height : 400 pixels
Display aspect ratio : 16:9
Frame rate : 25.000 fps
Bits/(Pixel*Frame) : 0.249
Stream size : 1.16 GiB (93%)

Audio
ID : 1
Format : MPEG Audio
Format version : Version 1
Format profile : Layer 3
Mode : Joint stereo
Mode extension : MS Stereo
Codec ID : 55
Codec ID/Hint : MP3
Duration : 1h 32mn
Bit rate mode : Constant
Bit rate : 128 Kbps
Channel(s) : 2 channels
Sampling rate : 44.1 KHz
Compression mode : Lossy
Stream size : 18.5 MiB (1%)
Alignment : Aligned on interleaves
Interleave, duration : 120 ms (2.99 video frames)
Writing library : LAME3.98.2






 
http://www.imdb.com/title/tt1606259/









Users: (41 votes) 1 review | Critics: 9 reviews


An epic 12-year journey into the brutal and secretive world of Irish Traveler bare-knuckle fighting. This film follows a history of violent feuding between rival clans.





















Source Used


KNuckle 2011 NoGrp mp4


Enjoy


No idea what this is so went with VODRip....Fook knows lol





Greetz to IMAGiNE,Flawl3ss,DiLLoN,BDK,NOiR,TOXiC,THC,Ez,Rx,Boobyblue,TaRiQ786
